<?xml version="1.0" encoding="UTF-8" standalone="no"?>
<svg
   xmlns:dc="http://purl.org/dc/elements/1.1/"
   xmlns:cc="http://creativecommons.org/ns#"
   xmlns:rdf="http://www.w3.org/1999/02/22-rdf-syntax-ns#"
   xmlns:svg="http://www.w3.org/2000/svg"
   xmlns="http://www.w3.org/2000/svg"
   xmlns:sodipodi="http://sodipodi.sourceforge.net/DTD/sodipodi-0.dtd"
   xmlns:inkscape="http://www.inkscape.org/namespaces/inkscape"
   version="1.1"
   id="Layer_1"
   x="0px"
   y="0px"
   width="100px"
   height="100px"
   viewBox="0 0 100 100"
   enable-background="new 0 0 100 100"
   xml:space="preserve"
   inkscape:version="0.48.4 r9939"
   sodipodi:docname="battery.svg"><metadata
   id="metadata13"><rdf:RDF><cc:Work
       rdf:about=""><dc:format>image/svg+xml</dc:format><dc:type
         rdf:resource="http://purl.org/dc/dcmitype/StillImage" /><dc:title></dc:title></cc:Work></rdf:RDF></metadata><defs
   id="defs11" /><sodipodi:namedview
   pagecolor="#ffffff"
   bordercolor="#666666"
   borderopacity="1"
   objecttolerance="10"
   gridtolerance="10"
   guidetolerance="10"
   inkscape:pageopacity="0"
   inkscape:pageshadow="2"
   inkscape:window-width="1920"
   inkscape:window-height="1018"
   id="namedview9"
   showgrid="false"
   inkscape:zoom="6.675088"
   inkscape:cx="0.22061952"
   inkscape:cy="43.864309"
   inkscape:window-x="-8"
   inkscape:window-y="-8"
   inkscape:window-maximized="1"
   inkscape:current-layer="Layer_1" />



<path
   sodipodi:type="arc"
   style="fill:#000000;fill-opacity:1;fill-rule:evenodd;stroke:#000000;stroke-width:1px;stroke-linecap:butt;stroke-linejoin:miter;stroke-opacity:1"
   id="path2990"
   sodipodi:cx="46.815861"
   sodipodi:cy="44.120586"
   sodipodi:rx="32.583839"
   sodipodi:ry="31.610069"
   d="m 79.3997,44.120586 a 32.583839,31.610069 0 1 1 -65.167679,0 32.583839,31.610069 0 1 1 65.167679,0 z"
   transform="matrix(0.67386586,0,0,0.68751575,17.815034,21.127716)" /><rect
   style="fill:#000000;fill-opacity:1"
   id="rect3762"
   width="23.370478"
   height="5.9924302"
   x="22.902054"
   y="2.01651"
   rx="2.5"
   ry="2.5"
   transform="matrix(0.7362976,0.67665784,-0.67665784,0.7362976,0,0)" /><rect
   style="fill:#000000;fill-opacity:1"
   id="rect3762-7-4"
   width="23.370478"
   height="5.9924302"
   x="2.3678269"
   y="-52.815693"
   rx="2.5"
   ry="2.5"
   transform="matrix(-0.00211559,0.99999776,-0.99999776,-0.00211559,0,0)" /><rect
   style="fill:#000000;fill-opacity:1"
   id="rect3762-0"
   width="23.370478"
   height="5.9924302"
   x="1.5314358"
   y="48.345417"
   rx="2.5"
   ry="2.5"
   transform="matrix(0.99999742,-0.00226947,0.00226947,0.99999742,0,0)" /><rect
   style="fill:#000000;fill-opacity:1"
   id="rect3762-0-9"
   width="23.370478"
   height="5.9924302"
   x="-48.65551"
   y="69.042618"
   rx="2.5"
   ry="2.5"
   transform="matrix(0.7141695,-0.6999728,0.6999728,0.7141695,0,0)" /><rect
   style="fill:#000000;fill-opacity:1"
   id="rect3762-4"
   width="23.370478"
   height="5.9924302"
   x="-119.69162"
   y="-7.2303019"
   rx="2.5"
   ry="2.5"
   transform="matrix(-0.7362976,-0.67665784,0.67665784,-0.7362976,0,0)" /><rect
   style="fill:#000000;fill-opacity:1"
   id="rect3762-7-4-8"
   width="23.370478"
   height="5.9924302"
   x="-98.718178"
   y="46.335114"
   rx="2.5"
   ry="2.5"
   transform="matrix(0.00211559,-0.99999776,0.99999776,0.00211559,0,0)" /><rect
   style="fill:#000000;fill-opacity:1"
   id="rect3762-0-8"
   width="23.370478"
   height="5.9924302"
   x="-96.968338"
   y="-55.173935"
   rx="2.5"
   ry="2.5"
   transform="matrix(-0.99999742,0.00226947,-0.00226947,-0.99999742,0,0)" /><rect
   style="fill:#000000;fill-opacity:1"
   id="rect3762-0-9-2"
   width="23.370478"
   height="5.9924302"
   x="-46.864571"
   y="-73.83934"
   rx="2.5"
   ry="2.5"
   transform="matrix(-0.7141695,0.6999728,-0.6999728,-0.7141695,0,0)" /></svg>